<svg xmlns="http://www.w3.org/2000/svg" width="404" height="537" viewBox="0 0 404 537" xmlns:xlink="http://www.w3.org/1999/xlink"><rect x="212.83877" width="186.35766" height="213.90618" fill="#e6e6e6"/><path id="uuid-63f12f30-9ab6-4f05-9b95-b74528116577-47" d="M176.60348,193.94734c5.25679-5.34964,12.27813-6.97361,15.68213-3.62759,3.404,3.34602,1.90142,10.39391-3.35796,15.74475-2.07159,2.16626-4.63183,3.80492-7.46654,4.77886l-22.55949,22.38538-10.27915-10.81042,23.33099-20.92029c.92475-2.85215,2.51925-5.4413,4.65003-7.55069Z" fill="#ffb6b6"/><path d="M104.45535,175.46944l23.65312,52.47301,37.77041-20.44495,13.51734,7.17415s-30.87649,51.61987-52.01762,45.74362c-21.14112-5.87625-58.68228-59.15807-51.9183-75.60245,6.76399-16.44438,28.99505-9.34339,28.99505-9.34339Z" fill="#e6e6e6"/><g><rect x="161.02783" y="256.45859" width="3.241" height="9.72301" fill="#3f3d56"/><path d="M164.26883,237.73816h-3.241v-18.72043h3.241v18.72043Zm0-37.44165h-3.241v-18.72043h3.241v18.72043Zm0-37.44086h-3.241v-18.72122h3.241v18.72122Zm0-37.44165h-3.241v-18.72122h3.241v18.72122Zm0-37.44165h-3.241v-18.72043h3.241v18.72043Z" fill="#3f3d56"/><polygon points="164.26883 50.53068 161.02783 50.53068 161.02783 39.18717 172.37134 39.18717 172.37134 42.42818 164.26883 42.42818 164.26883 50.53068" fill="#3f3d56"/><path d="M314.98338,42.42818h-17.82631v-3.241h17.82631v3.241Zm-35.65261,0h-17.82631v-3.241h17.82631v3.241Zm-35.6534,0h-17.82631v-3.241h17.82631v3.241Zm-35.65261,0h-17.82631v-3.241h17.82631v3.241Z" fill="#3f3d56"/><rect x="332.80968" y="39.18717" width="9.72301" height="3.241" fill="#3f3d56"/></g><g><path d="M284.31306,445.52186c-.8443-1.42365-4.49683,.10068-5.16833-1.19135-.66913-1.28735,2.72449-3.24887,4.66333-7.7298,.34967-.80807,2.55298-5.90033,.92188-7.47162-3.09174-2.97836-17.23962,9.31259-22.19073,5.29041-1.08661-.88269-1.8457-2.64484-5.13428-5.50583-1.30829-1.13815-2.09937-1.65204-2.86499-1.46085-1.08636,.27127-1.17242,1.72522-2.33734,4.58398-1.74701,4.28729-2.78027,4.02841-3.79816,7.44897-.75562,2.53925-.58301,4.01553-1.47217,4.30313-1.25824,.40701-2.41638-2.28632-4.01099-2.04517-1.6272,.24612-2.61096,3.38205-2.92169,5.72998-.58313,4.40607,1.03497,7.31348,1.93182,10.37064,.97461,3.32236,1.55304,8.37494-.69769,15.52759l-22.27719,62.76614c4.91812-12.87943,19.15842-48.18536,25.14218-61.3053,1.72742-3.78745,3.6347-7.62909,7.55096-9.14526,3.77045-1.45978,8.94867-.58823,15.55029-2.17862,.771-.1857,2.91052-.73007,3.17981-1.98849,.22266-1.04037-1.03583-1.62109-.84247-2.59549,.25934-1.30701,2.73413-1.32306,5.77533-2.83096,2.14447-1.06332,3.48047-2.32785,4.62933-3.41531,.34637-.32785,5.49512-5.26166,4.37115-7.1568h-.00006Z" fill="#f2f2f2"/><path d="M196.66795,478.56459c-.94235,.0036-1.24805,2.23611-2.07593,2.1929-.82492-.04303-.80847-2.2746-2.4483-4.5191-.29572-.40475-2.1593-2.95547-3.40115-2.60825-2.35385,.65808-.4035,11.14828-3.80618,12.41782-.74673,.27863-1.83066,.14276-4.18369,.93134-.9361,.31372-1.41656,.55371-1.54364,.98465-.1803,.61145,.50845,1.07324,1.57544,2.46979,1.60016,2.09445,1.17496,2.52692,2.56009,4.01343,1.02826,1.10352,1.80264,1.44476,1.68723,1.96414-.16327,.73499-1.81934,.52631-2.16107,1.37851-.34869,.86966,.90659,2.25729,1.9693,3.08725,1.99429,1.5575,3.88812,1.6022,5.64737,2.04413,1.91183,.48026,4.55859,1.65421,7.41974,4.82266l24.37836,29.04382c-4.90228-6.12997-18.12189-23.30609-22.83472-30.0285-1.3605-1.94061-2.69568-3.98517-2.30984-6.34479,.37143-2.27176,2.29327-4.56177,3.41748-8.26077,.13132-.43201,.48145-1.63916-.05847-2.13443-.44638-.40945-1.09451,.04068-1.51697-.33539-.56665-.50443,.13953-1.72369,.27689-3.6514,.09686-1.35931-.13831-2.37988-.34055-3.25754-.06097-.26459-.99695-4.21518-2.25137-4.21036v.00009Z" fill="#f2f2f2"/><path d="M215.46757,482.78468l-.56775-5.06818,.2594-.38422c1.20035-1.77667,1.81216-3.51175,1.81949-5.15872,.00122-.26184-.01102-.52371-.02325-.79044-.04895-1.05719-.11011-2.37134,.5751-3.90329,.38422-.85406,1.46344-2.83142,3.08594-2.5867,.43683,.06119,.76721,.26184,1.01804,.49677,.03671-.05872,.07465-.11746,.11502-.18109,.50534-.77087,.90546-1.10123,1.29089-1.41937,.29611-.24472,.60202-.49677,1.08167-1.0939,.21045-.26184,.37442-.49188,.5127-.68521,.41971-.58487,.96786-1.28235,1.93451-1.27011,1.03271,.04895,1.57355,.90302,1.93207,1.46832,.63995,1.00824,.92993,1.73508,1.12204,2.21716,.06976,.17621,.14929,.37442,.18967,.43561,.33282,.48944,3.03824,.0318,4.05746-.13461,2.28937-.38177,4.27039-.71213,5.08655,.73172,.5849,1.03271,.15051,2.39825-1.33008,4.1676-.4613,.55063-.95197,.96909-1.38757,1.29703,.36096,.21536,.68396,.54572,.81494,1.06454h0c.30835,1.22849-.74762,2.45944-3.13733,3.66348-.59344,.30099-1.39246,.70236-2.51205,.89569-.52737,.09055-1.00214,.11258-1.40836,.12482-.00858,.23492-.06363,.48944-.20679,.75128-.41971,.77087-1.29333,1.13794-2.60995,1.04984-1.44876-.07587-2.64175-.35239-3.69406-.59467-.91891-.21045-1.7106-.3891-2.33218-.3475-1.15262,.09299-2.04099,1.01559-3.08347,2.21228l-2.6026,3.04187h-.00003Z" fill="#f2f2f2"/><path d="M218.10127,452.60874l-4.75842,1.83472-.43744-.15347c-2.02304-.71045-3.85654-.86215-5.45151-.45148-.2536,.06525-.50378,.14349-.7587,.22299-1.01019,.31549-2.26587,.70801-3.92151,.43378-.92361-.155-3.11002-.69739-3.28485-2.32889-.05161-.43805,.05869-.80853,.22232-1.11075-.06613-.0206-.13257-.04239-.20435-.06531-.87384-.2933-1.29489-.59653-1.70041-.88867-.31183-.22437-.63324-.45633-1.33249-.76883-.30667-.13715-.57077-.2374-.79285-.32211-.67221-.2576-1.4859-.61096-1.71924-1.5491-.2146-1.01135,.47437-1.75113,.93024-2.24133,.81296-.87476,1.44244-1.33963,1.86005-1.64774,.15274-.11215,.32431-.23938,.37326-.29395,.38901-.44608-.73987-2.94693-1.15936-3.89062-.94998-2.11765-1.77203-3.95007-.5824-5.10577,.85059-.8277,2.28165-.75391,4.36868,.22946,.64963,.30655,1.17886,.67502,1.60657,1.01321,.11676-.40378,.35437-.80005,.82303-1.05829h0c1.11011-.60986,2.56863,.09933,4.33945,2.10547,.44168,.49768,1.03259,1.16876,1.50357,2.2027,.22134,.48715,.36307,.9408,.47797,1.33066,.22943-.0513,.48956-.06259,.77917,.00946,.85211,.21045,1.4288,.9624,1.67752,2.2583,.2941,1.42062,.32922,2.64474,.36179,3.72409,.02951,.94226,.0575,1.75336,.25543,2.34406,.38232,1.09134,1.50006,1.71661,2.92206,2.42148l3.60254,1.74591-.00012,.00003Z" fill="#f2f2f2"/><path d="M215.46757,437.67774l-.56775-5.06818,.2594-.38422c1.20035-1.77667,1.81216-3.51175,1.81949-5.15872,.00122-.26184-.01102-.52371-.02325-.79044-.04895-1.05719-.11011-2.37134,.5751-3.90329,.38422-.85406,1.46344-2.83142,3.08594-2.5867,.43683,.06119,.76721,.26184,1.01804,.49677,.03671-.05872,.07465-.11746,.11502-.18109,.50534-.77087,.90546-1.10123,1.29089-1.41937,.29611-.24472,.60202-.49677,1.08167-1.0939,.21045-.26184,.37442-.49188,.5127-.68521,.41971-.58487,.96786-1.28235,1.93451-1.27011,1.03271,.04895,1.57355,.90302,1.93207,1.46832,.63995,1.00824,.92993,1.73508,1.12204,2.21716,.06976,.17621,.14929,.37442,.18967,.43561,.33282,.48944,3.03824,.0318,4.05746-.13461,2.28937-.38177,4.27039-.71213,5.08655,.73172,.5849,1.03271,.15051,2.39825-1.33008,4.1676-.4613,.55063-.95197,.96909-1.38757,1.29703,.36096,.21536,.68396,.54572,.81494,1.06454h0c.30835,1.22849-.74762,2.45944-3.13733,3.66348-.59344,.30099-1.39246,.70236-2.51205,.89569-.52737,.09055-1.00214,.11258-1.40836,.12482-.00858,.23492-.06363,.48944-.20679,.75128-.41971,.77087-1.29333,1.13794-2.60995,1.04984-1.44876-.07587-2.64175-.35239-3.69406-.59467-.91891-.21045-1.7106-.3891-2.33218-.3475-1.15262,.09299-2.04099,1.01559-3.08347,2.21228l-2.6026,3.04187h-.00003Z" fill="#f2f2f2"/><path d="M220.65321,536.05549l-1.0621-.66565-.25696-1.22604,.25696,1.22604-1.23828,.14194c-.01959-.11502-.08688-.37933-.18842-.79291-.55429-2.26611-2.24408-9.16235-3.65369-20.02304-.9838-7.58145-1.54053-15.37579-1.65555-23.17017-.11502-7.80658,.25452-13.71661,.55063-18.46661,.22391-3.5827,.49557-6.99411,.7623-10.31744,.70969-8.87848,1.379-17.26505,.88098-26.54974-.11011-2.07278-.3414-6.38721-2.862-10.97818-1.46222-2.66257-3.47626-5.02655-5.98709-7.02347l1.56131-1.96265c2.77145,2.20737,4.99963,4.8259,6.62338,7.78214,2.79471,5.09018,3.04678,9.79129,3.16791,12.05005,.50656,9.44867-.17007,17.91602-.88712,26.88013-.26431,3.31107-.53595,6.70779-.75864,10.27582-.29367,4.70599-.65952,10.56458-.54572,18.27084,.11258,7.70135,.66318,15.40027,1.63351,22.88629,1.39246,10.72366,3.0578,17.51712,3.60474,19.74896,.29123,1.1918,.35239,1.44141,.05383,1.91373v-.00003Z" fill="#f2f2f2"/><path d="M201.60414,422.19184c-.10278,0-.20679-.00244-.31201-.0098-2.13397-.11502-4.11008-1.39246-5.87451-3.79562-.82715-1.13062-1.25052-2.42029-2.09482-4.99231-.13092-.39645-.76721-2.40805-1.15387-5.17584-.2533-1.8085-.22147-2.56467,.13705-3.23276,.39767-.74396,1.04129-1.26276,1.76566-1.6127-.0318-.23984-.00613-.487,.0979-.73907,.42703-1.04495,1.56253-.9079,2.17679-.84183,.31079,.03915,.69867,.09055,1.11716,.06851,.65829-.0318,1.01193-.2276,1.54785-.52127,.5127-.28143,1.15018-.63138,2.09604-.82471,1.86478-.3891,3.42731,.1395,3.94244,.31323,2.71027,.90302,4.04645,3.01007,5.59308,5.44992,.30835,.48944,1.36676,2.271,2.06543,4.71332,.50412,1.76199,.43317,2.5451,.28143,3.12753-.30835,1.19669-1.03638,1.8819-2.88525,3.39429-1.93085,1.58334-2.89993,2.37625-3.73199,2.85834-1.93695,1.11838-3.15323,1.82071-4.76837,1.82071v.00006Z" fill="#f2f2f2"/></g><rect y="535" width="404" height="2" fill="#3f3d56"/><g><polygon points="94.08377 525.18085 111.3307 525.17917 119.53516 458.65456 94.08031 458.65634 94.08377 525.18085" fill="#ffb6b6"/><path d="M153.17391,524.78961h0c.53701,.90442,.82036,3.8235,.82036,4.87526h0c0,3.23286-2.62071,5.85368-5.85368,5.85368h-53.41172c-2.20544,0-3.9934-1.78786-3.9934-3.9934v-2.2237s-2.64222-6.68338,2.79765-14.92101c0,0,6.76104,6.45019,16.86377-3.65254l2.97921-5.39706,21.56534,15.7718,11.95334,1.47134c2.61515,.32187,4.93372-.04995,6.27892,2.21562h.00021Z" fill="#2f2e41"/></g><polygon points="107.13455 178.83668 107.48339 155.57458 93.13834 146.63241 77.53979 165.71279 107.13455 178.83668" fill="#ffb6b6"/><polygon points="107.13455 178.83668 108.06303 156.15423 93.13834 146.63241 98.20901 174.70299 107.13455 178.83668" opacity=".1"/><circle cx="107.17928" cy="137.30127" r="25.51205" fill="#ffb6b6"/><path d="M141.97248,332.65727l-23.7656,161.72199h-29.81713l3.96481-92.31486,2.08672-48.53978-6.05153-23.10479s-2.75913-5.13571-5.08353-11.36114c-2.61999-7.02534-4.68934-15.44762-1.61721-19.44141,1.13032-1.47233,4.06915-2.56207,8.0629-3.37356,2.44033-.49849,5.28063-.88688,8.34696-1.18827,17.6329-1.74475,42.71432-.65501,42.71432-.65501l.6376,21.04124,.35361,11.74949,.16809,5.46608Z" fill="#2f2e41"/><g><polygon points="63.70272 517.27167 80.76646 519.77869 98.56014 455.155 73.37575 451.45417 63.70272 517.27167" fill="#ffb6b6"/><path d="M122.22131,525.47967h0c.39974,.97292,.25548,3.90216,.1025,4.94274h0c-.47024,3.19848-3.4443,5.41022-6.64288,4.93996l-52.84366-7.76911c-2.18198-.3208-3.69088-2.34971-3.37006-4.5318l.32345-2.20005s-1.64198-6.99663,4.93826-14.35538c0,0,5.75091,7.36503,17.2157-1.16074l3.73256-4.90631,19.04187,18.74089,11.6122,3.19439c2.54052,.69884,4.88851,.66822,5.88986,3.10537l.00021,.00003Z" fill="#2f2e41"/></g><path d="M142.34652,305.68655l-3.25967,28.07231-17.77661,59.15589-29.26327,97.39091-29.49673-4.3348,26.47299-138.4754-2.62124-23.74478s-.85365-2.36026-1.83218-5.81567c-1.9423-6.83602-4.37839-17.9685-1.6983-23.6471,.36189-.77192,.81618-1.44168,1.37819-1.984,1.05413-1.02229,3.19659-1.64307,6.067-1.97236,11.99776-1.35598,36.7064,2.52236,47.70111,4.42623l4.32871,10.92876Z" fill="#2f2e41"/><path d="M80.81955,160.79142l28.98244,13.91157s30.72138,91.00485,30.72138,95.64204c0,4.63719,8.69473,7.53543,3.47789,12.75227-5.21684,5.21684,9.70997,9.63495,1.66692,13.80203-8.04305,4.16708-58.21688,26.96048-63.79598,24.90502-15.38743-5.66905,.65206-26.50019,.65206-26.50019,0,0-11.55874-9.30861-9.8198-13.9458,1.73895-4.63719-10.43368-93.32344-10.43368-93.32344l18.54876-27.24349Z" fill="#e6e6e6"/><path d="M105.62127,143.41186l3.28137,6.56275s3.28137-11.81295,8.53157-14.43805,5.90647-6.56275,5.90647-6.56275c0,0,6.56275,8.53157,11.15667,6.56275,4.59392-1.96882,6.56275-3.28137,1.31255-11.15667-5.2502-7.8753-3.93765-3.93765-3.93765-3.93765,0,0-4.59392-6.56275-3.93765-4.59392s-3.93765-5.2502-3.93765-3.28137c0,1.96882-3.28137-3.93765-3.28137-1.96882,0,1.96882-13.78177-4.59392-11.81295-1.96882s-11.81295-5.2502-18.3757,5.2502c-6.56275,10.5004-15.66275,8.55856-12.4253,15.10782s1.9249,24.26868,1.9249,24.26868h9.05091s9.32479-17.71942,16.54381-9.84412Z" fill="#2f2e41"/><path d="M342.53192,40.80785c-73.24223,141.52722-134.03635,204.6921-167.83742,143.26829,4.63995,35.8302,.73395,114.6474-17.6945,127.92386l189.53208-58.6131-4.00016-212.57905Z" fill="#6c63ff"/><g><path id="uuid-e967cc2e-cf82-40ad-a893-bd90ae03d296-48" d="M169.1319,240.98085c7.19283-2.12502,14.11967-.13622,15.4713,4.44157,1.35163,4.57779-3.38348,10.01003-10.57916,12.13485-2.86274,.8882-5.89656,1.07793-8.84763,.55327l-30.59003,8.61893-3.73863-14.44122,30.55328-6.96353c2.19307-2.0446,4.844-3.53412,7.73088-4.34387Z" fill="#ffb6b6"/><path d="M115.02597,189.80143l-4.79452,57.35765,42.94632,.46178,8.3349,12.83418s-52.05339,30.1399-67.68354,14.73938c-15.63015-15.40051-22.58474-80.20734-8.68819-91.30036,13.89655-11.09302,29.88503,5.90736,29.88503,5.90736Z" fill="#e6e6e6"/></g><path d="M215.45541,167.71068l-10.31294-3.1828c4.75566,4.9558,9.41072,13.09493,12.22655,19.69949,2.17146-6.84271,6.02985-15.38829,10.29157-20.77476l-9.82544,4.09452c1.84928-31.71967,22.31152-57.24717,49.39214-61.14752l.22305-1.16823c-28.28641,4.07401-50.19258,29.49647-51.99492,62.47929Z" fill="#3f3d56"/><path d="M228.4429,257.25965l5.50089-9.08363c-5.86605,3.35577-14.74657,5.85529-21.72311,6.96573,6.0128,3.70681,13.24815,9.43047,17.37178,14.78466l-1.56177-10.35624c29.83488,9.34029,49.31425,34.96792,46.56987,61.74791l1.06181,.49189c2.86658-27.9724-16.1677-54.95317-47.21946-64.55031Z" fill="#3f3d56"/></svg>